<svg id="visual" viewBox="0 0 900 600" width="900" height="600" xmlns="http://www.w3.org/2000/svg" xmlns:xlink="http://www.w3.org/1999/xlink" version="1.1"><rect x="0" y="0" width="900" height="600" fill="#001220"></rect><path d="M0 35L30 36C60 37 120 39 180 39.7C240 40.3 300 39.7 360 39.7C420 39.7 480 40.3 540 39.5C600 38.7 660 36.3 720 34.3C780 32.3 840 30.7 870 29.8L900 29L900 0L870 0C840 0 780 0 720 0C660 0 600 0 540 0C480 0 420 0 360 0C300 0 240 0 180 0C120 0 60 0 30 0L0 0Z" fill="#fa7268"></path><path d="M0 37L30 37.3C60 37.7 120 38.3 180 38.8C240 39.3 300 39.7 360 37.8C420 36 480 32 540 30.8C600 29.7 660 31.3 720 32.5C780 33.7 840 34.3 870 34.7L900 35L900 0L870 0C840 0 780 0 720 0C660 0 600 0 540 0C480 0 420 0 360 0C300 0 240 0 180 0C120 0 60 0 30 0L0 0Z" fill="#be5079"></path><path d="M0 23L30 22.3C60 21.7 120 20.3 180 19.8C240 19.3 300 19.7 360 20.7C420 21.7 480 23.3 540 24.3C600 25.3 660 25.7 720 26.2C780 26.7 840 27.3 870 27.7L900 28L900 0L870 0C840 0 780 0 720 0C660 0 600 0 540 0C480 0 420 0 360 0C300 0 240 0 180 0C120 0 60 0 30 0L0 0Z" fill="#723f71"></path><path d="M0 14L30 14.8C60 15.7 120 17.3 180 17.5C240 17.7 300 16.3 360 15C420 13.7 480 12.3 540 12C600 11.7 660 12.3 720 12.3C780 12.3 840 11.7 870 11.3L900 11L900 0L870 0C840 0 780 0 720 0C660 0 600 0 540 0C480 0 420 0 360 0C300 0 240 0 180 0C120 0 60 0 30 0L0 0Z" fill="#2c2c4f"></path><path d="M0 7L30 6.8C60 6.7 120 6.3 180 6.5C240 6.7 300 7.3 360 8C420 8.7 480 9.3 540 10.3C600 11.3 660 12.7 720 13.2C780 13.7 840 13.3 870 13.2L900 13L900 0L870 0C840 0 780 0 720 0C660 0 600 0 540 0C480 0 420 0 360 0C300 0 240 0 180 0C120 0 60 0 30 0L0 0Z" fill="#001220"></path></svg>