<svg id="visual" viewBox="0 0 900 600" width="900" height="600" xmlns="http://www.w3.org/2000/svg" xmlns:xlink="http://www.w3.org/1999/xlink" version="1.1"><rect x="0" y="0" width="900" height="600" fill="#001220"></rect><path d="M0 262L30 253.3C60 244.7 120 227.3 180 222.5C240 217.7 300 225.3 360 216.3C420 207.3 480 181.7 540 183.3C600 185 660 214 720 228.3C780 242.7 840 242.3 870 242.2L900 242L900 601L870 601C840 601 780 601 720 601C660 601 600 601 540 601C480 601 420 601 360 601C300 601 240 601 180 601C120 601 60 601 30 601L0 601Z" fill="#fa7268"></path><path d="M0 239L30 244.5C60 250 120 261 180 271.7C240 282.3 300 292.7 360 296.8C420 301 480 299 540 304.8C600 310.7 660 324.3 720 325.2C780 326 840 314 870 308L900 302L900 601L870 601C840 601 780 601 720 601C660 601 600 601 540 601C480 601 420 601 360 601C300 601 240 601 180 601C120 601 60 601 30 601L0 601Z" fill="#ef5f67"></path><path d="M0 373L30 361C60 349 120 325 180 326.5C240 328 300 355 360 362.8C420 370.7 480 359.3 540 358C600 356.7 660 365.3 720 359.8C780 354.3 840 334.7 870 324.8L900 315L900 601L870 601C840 601 780 601 720 601C660 601 600 601 540 601C480 601 420 601 360 601C300 601 240 601 180 601C120 601 60 601 30 601L0 601Z" fill="#e34c67"></path><path d="M0 389L30 401C60 413 120 437 180 438.2C240 439.3 300 417.7 360 403.7C420 389.7 480 383.3 540 398C600 412.7 660 448.3 720 463.8C780 479.3 840 474.7 870 472.3L900 470L900 601L870 601C840 601 780 601 720 601C660 601 600 601 540 601C480 601 420 601 360 601C300 601 240 601 180 601C120 601 60 601 30 601L0 601Z" fill="#d53867"></path><path d="M0 461L30 462.7C60 464.3 120 467.7 180 468.2C240 468.7 300 466.3 360 470C420 473.7 480 483.3 540 491C600 498.7 660 504.3 720 505.8C780 507.3 840 504.7 870 503.3L900 502L900 601L870 601C840 601 780 601 720 601C660 601 600 601 540 601C480 601 420 601 360 601C300 601 240 601 180 601C120 601 60 601 30 601L0 601Z" fill="#c62368"></path></svg>