<svg id="visual" viewBox="0 0 900 600" width="900" height="600" xmlns="http://www.w3.org/2000/svg" xmlns:xlink="http://www.w3.org/1999/xlink" version="1.1"><rect x="0" y="0" width="900" height="600" fill="#ff4040"></rect><path d="M0 287L21.5 298.2C43 309.3 86 331.7 128.8 349.8C171.7 368 214.3 382 257.2 364.8C300 347.7 343 299.3 385.8 261.5C428.7 223.7 471.3 196.3 514.2 188.8C557 181.3 600 193.7 642.8 224.5C685.7 255.3 728.3 304.7 771.2 303.7C814 302.7 857 251.3 878.5 225.7L900 200L900 0L878.5 0C857 0 814 0 771.2 0C728.3 0 685.7 0 642.8 0C600 0 557 0 514.2 0C471.3 0 428.7 0 385.8 0C343 0 300 0 257.2 0C214.3 0 171.7 0 128.8 0C86 0 43 0 21.5 0L0 0Z" fill="#ADD8E6" stroke-linecap="round" stroke-linejoin="miter"></path></svg>